<mxfile host="app.diagrams.net" modified="2023-09-25T17:52:51.676Z" agent="Mozilla/5.0 (Macintosh; Intel Mac OS X 10_15_7) AppleWebKit/537.36 (KHTML, like Gecko) Chrome/116.0.0.0 Safari/537.36" etag="fgdDt5GHHymp4EiOU2tt" version="21.8.0" type="github" pages="4">
  <diagram name="Página-1" id="WdfRZ3aBrV-6aahJLl9e">
    <mxGraphModel dx="2535" dy="729" grid="1" gridSize="10" guides="1" tooltips="1" connect="1" arrows="1" fold="1" page="1" pageScale="1" pageWidth="1169" pageHeight="827" math="0" shadow="0">
      <root>
        <mxCell id="0" />
        <mxCell id="1" parent="0" />
        <mxCell id="QyJvAn82tEcCUQrwzSHf-52" value="&lt;font style=&quot;font-size: 14px;&quot;&gt;1 - Recebimento do arquivo Excel pelo RVS&lt;/font&gt;" style="text;html=1;strokeColor=default;fillColor=none;align=center;verticalAlign=middle;whiteSpace=wrap;rounded=0;" parent="1" vertex="1">
          <mxGeometry x="-280" y="980" width="280" height="40" as="geometry" />
        </mxCell>
        <mxCell id="QyJvAn82tEcCUQrwzSHf-53" value="&lt;font style=&quot;font-size: 14px;&quot;&gt;2 - Glue job on S3 Event: O Glue captura o arquivo RAW converte para Parquet, move o arquivo transformado para a pasta Parquet e o arquivo RAW renomeia para &amp;lt;timestamp_nome_ar_arquivo.xlsx&amp;gt; e move para a pasta backup. Backup 6 meses (TBD), após isso DeepArchive.&lt;br&gt;DeepArchive com duração de 3 a 5 anos (TBD)&lt;br&gt;&lt;/font&gt;" style="text;html=1;strokeColor=default;fillColor=none;align=center;verticalAlign=middle;whiteSpace=wrap;rounded=0;" parent="1" vertex="1">
          <mxGeometry x="-280" y="1034" width="280" height="166" as="geometry" />
        </mxCell>
        <mxCell id="QyJvAn82tEcCUQrwzSHf-54" value="&lt;span style=&quot;font-size: 14px;&quot;&gt;3 - Crawler job: Carrega a estrutura do arquivo Parquet no DataLake&lt;/span&gt;" style="text;html=1;strokeColor=default;fillColor=none;align=center;verticalAlign=middle;whiteSpace=wrap;rounded=0;" parent="1" vertex="1">
          <mxGeometry x="-280" y="1214" width="280" height="46" as="geometry" />
        </mxCell>
        <mxCell id="QyJvAn82tEcCUQrwzSHf-55" value="&lt;span style=&quot;font-size: 14px;&quot;&gt;4 - LakeFormation: Estrutura dados do arquivo Parquet&lt;/span&gt;" style="text;html=1;strokeColor=default;fillColor=none;align=center;verticalAlign=middle;whiteSpace=wrap;rounded=0;" parent="1" vertex="1">
          <mxGeometry x="-280" y="1274" width="280" height="46" as="geometry" />
        </mxCell>
        <mxCell id="QyJvAn82tEcCUQrwzSHf-60" value="&lt;span style=&quot;font-size: 14px;&quot;&gt;5 - Clue Job on Scheduler: Realiza a consulta no datalake e salva o resultado processado de acordo com o modelo Dassault&lt;/span&gt;" style="text;html=1;strokeColor=default;fillColor=none;align=center;verticalAlign=middle;whiteSpace=wrap;rounded=0;" parent="1" vertex="1">
          <mxGeometry x="-280" y="1332" width="280" height="78" as="geometry" />
        </mxCell>
        <mxCell id="QyJvAn82tEcCUQrwzSHf-61" value="&lt;span style=&quot;font-size: 14px;&quot;&gt;6 - Clue Job on S3 Event or Scheduler: Entrega os dados tratados para o SQL Server (Delmia) ou ViewTable&lt;/span&gt;" style="text;html=1;strokeColor=default;fillColor=none;align=center;verticalAlign=middle;whiteSpace=wrap;rounded=0;" parent="1" vertex="1">
          <mxGeometry x="-280" y="1426" width="280" height="78" as="geometry" />
        </mxCell>
        <mxCell id="jKxIUuqLX2hnxJrICWpl-1" value="RAW" style="swimlane;whiteSpace=wrap;html=1;strokeWidth=2;fontSize=15;startSize=30;" parent="1" vertex="1">
          <mxGeometry x="-1130" y="40" width="520" height="1010" as="geometry" />
        </mxCell>
        <mxCell id="QyJvAn82tEcCUQrwzSHf-70" value="FINANCEIRO" style="rounded=0;whiteSpace=wrap;html=1;" parent="jKxIUuqLX2hnxJrICWpl-1" vertex="1">
          <mxGeometry x="45" y="159" width="120" height="60" as="geometry" />
        </mxCell>
        <mxCell id="QyJvAn82tEcCUQrwzSHf-74" value="LANDING" style="rounded=0;whiteSpace=wrap;html=1;" parent="jKxIUuqLX2hnxJrICWpl-1" vertex="1">
          <mxGeometry x="135" y="249" width="120" height="60" as="geometry" />
        </mxCell>
        <mxCell id="QyJvAn82tEcCUQrwzSHf-69" style="edgeStyle=orthogonalEdgeStyle;rounded=0;orthogonalLoop=1;jettySize=auto;html=1;entryX=0;entryY=0.5;entryDx=0;entryDy=0;" parent="jKxIUuqLX2hnxJrICWpl-1" source="QyJvAn82tEcCUQrwzSHf-70" target="QyJvAn82tEcCUQrwzSHf-74" edge="1">
          <mxGeometry relative="1" as="geometry">
            <mxPoint x="272" y="300" as="targetPoint" />
          </mxGeometry>
        </mxCell>
        <mxCell id="QyJvAn82tEcCUQrwzSHf-75" value="" style="sketch=0;outlineConnect=0;fontColor=#232F3E;gradientColor=none;fillColor=#3F8624;strokeColor=none;dashed=0;verticalLabelPosition=bottom;verticalAlign=top;align=center;html=1;fontSize=12;fontStyle=0;aspect=fixed;pointerEvents=1;shape=mxgraph.aws4.bucket_with_objects;" parent="jKxIUuqLX2hnxJrICWpl-1" vertex="1">
          <mxGeometry x="65" y="49" width="75" height="78" as="geometry" />
        </mxCell>
        <mxCell id="QyJvAn82tEcCUQrwzSHf-76" style="edgeStyle=orthogonalEdgeStyle;rounded=0;orthogonalLoop=1;jettySize=auto;html=1;entryX=0;entryY=0.5;entryDx=0;entryDy=0;exitX=0.5;exitY=1;exitDx=0;exitDy=0;" parent="jKxIUuqLX2hnxJrICWpl-1" source="QyJvAn82tEcCUQrwzSHf-74" target="QyJvAn82tEcCUQrwzSHf-77" edge="1">
          <mxGeometry relative="1" as="geometry">
            <mxPoint x="185" y="429" as="targetPoint" />
            <mxPoint x="185" y="329" as="sourcePoint" />
            <Array as="points">
              <mxPoint x="195" y="379" />
            </Array>
          </mxGeometry>
        </mxCell>
        <mxCell id="QyJvAn82tEcCUQrwzSHf-77" value="MX" style="rounded=0;whiteSpace=wrap;html=1;" parent="jKxIUuqLX2hnxJrICWpl-1" vertex="1">
          <mxGeometry x="215" y="349" width="120" height="60" as="geometry" />
        </mxCell>
        <mxCell id="QyJvAn82tEcCUQrwzSHf-78" value="TEVON" style="rounded=0;whiteSpace=wrap;html=1;" parent="jKxIUuqLX2hnxJrICWpl-1" vertex="1">
          <mxGeometry x="215" y="429" width="120" height="60" as="geometry" />
        </mxCell>
        <mxCell id="QyJvAn82tEcCUQrwzSHf-71" style="edgeStyle=orthogonalEdgeStyle;rounded=0;orthogonalLoop=1;jettySize=auto;html=1;entryX=0;entryY=0.5;entryDx=0;entryDy=0;" parent="jKxIUuqLX2hnxJrICWpl-1" source="QyJvAn82tEcCUQrwzSHf-74" target="QyJvAn82tEcCUQrwzSHf-78" edge="1">
          <mxGeometry relative="1" as="geometry" />
        </mxCell>
        <mxCell id="QyJvAn82tEcCUQrwzSHf-98" value="PROCESSED" style="rounded=0;whiteSpace=wrap;html=1;" parent="jKxIUuqLX2hnxJrICWpl-1" vertex="1">
          <mxGeometry x="135" y="520" width="120" height="60" as="geometry" />
        </mxCell>
        <mxCell id="QyJvAn82tEcCUQrwzSHf-102" style="edgeStyle=orthogonalEdgeStyle;rounded=0;orthogonalLoop=1;jettySize=auto;html=1;entryX=0;entryY=0.5;entryDx=0;entryDy=0;" parent="jKxIUuqLX2hnxJrICWpl-1" source="QyJvAn82tEcCUQrwzSHf-70" target="QyJvAn82tEcCUQrwzSHf-98" edge="1">
          <mxGeometry relative="1" as="geometry" />
        </mxCell>
        <mxCell id="wkNyC0qRFp0ewlE8JFJj-10" style="edgeStyle=orthogonalEdgeStyle;rounded=0;orthogonalLoop=1;jettySize=auto;html=1;entryX=0;entryY=0.5;entryDx=0;entryDy=0;" parent="jKxIUuqLX2hnxJrICWpl-1" source="QyJvAn82tEcCUQrwzSHf-101" target="wkNyC0qRFp0ewlE8JFJj-7" edge="1">
          <mxGeometry relative="1" as="geometry" />
        </mxCell>
        <mxCell id="wkNyC0qRFp0ewlE8JFJj-11" style="edgeStyle=orthogonalEdgeStyle;rounded=0;orthogonalLoop=1;jettySize=auto;html=1;entryX=0;entryY=0.5;entryDx=0;entryDy=0;" parent="jKxIUuqLX2hnxJrICWpl-1" source="QyJvAn82tEcCUQrwzSHf-101" target="wkNyC0qRFp0ewlE8JFJj-8" edge="1">
          <mxGeometry relative="1" as="geometry" />
        </mxCell>
        <mxCell id="wkNyC0qRFp0ewlE8JFJj-12" style="edgeStyle=orthogonalEdgeStyle;rounded=0;orthogonalLoop=1;jettySize=auto;html=1;entryX=0;entryY=0.5;entryDx=0;entryDy=0;" parent="jKxIUuqLX2hnxJrICWpl-1" source="QyJvAn82tEcCUQrwzSHf-101" target="wkNyC0qRFp0ewlE8JFJj-9" edge="1">
          <mxGeometry relative="1" as="geometry" />
        </mxCell>
        <mxCell id="QyJvAn82tEcCUQrwzSHf-101" value="PARQUET" style="rounded=0;whiteSpace=wrap;html=1;" parent="jKxIUuqLX2hnxJrICWpl-1" vertex="1">
          <mxGeometry x="215" y="640" width="120" height="60" as="geometry" />
        </mxCell>
        <mxCell id="QyJvAn82tEcCUQrwzSHf-97" style="edgeStyle=orthogonalEdgeStyle;rounded=0;orthogonalLoop=1;jettySize=auto;html=1;entryX=0;entryY=0.5;entryDx=0;entryDy=0;" parent="jKxIUuqLX2hnxJrICWpl-1" source="QyJvAn82tEcCUQrwzSHf-98" target="QyJvAn82tEcCUQrwzSHf-101" edge="1">
          <mxGeometry relative="1" as="geometry" />
        </mxCell>
        <mxCell id="wkNyC0qRFp0ewlE8JFJj-7" value="MX" style="rounded=0;whiteSpace=wrap;html=1;" parent="jKxIUuqLX2hnxJrICWpl-1" vertex="1">
          <mxGeometry x="310" y="730" width="120" height="60" as="geometry" />
        </mxCell>
        <mxCell id="wkNyC0qRFp0ewlE8JFJj-8" value="TEVON" style="rounded=0;whiteSpace=wrap;html=1;" parent="jKxIUuqLX2hnxJrICWpl-1" vertex="1">
          <mxGeometry x="310" y="817" width="120" height="60" as="geometry" />
        </mxCell>
        <mxCell id="wkNyC0qRFp0ewlE8JFJj-9" value="TEVON" style="rounded=0;whiteSpace=wrap;html=1;" parent="jKxIUuqLX2hnxJrICWpl-1" vertex="1">
          <mxGeometry x="310" y="900" width="120" height="60" as="geometry" />
        </mxCell>
        <mxCell id="jKxIUuqLX2hnxJrICWpl-3" value="TRANSFORMED" style="swimlane;whiteSpace=wrap;html=1;strokeWidth=2;fontSize=15;startSize=30;" parent="1" vertex="1">
          <mxGeometry x="-560" y="40" width="380" height="920" as="geometry">
            <mxRectangle x="-560" y="40" width="160" height="30" as="alternateBounds" />
          </mxGeometry>
        </mxCell>
        <mxCell id="QyJvAn82tEcCUQrwzSHf-83" value="FINANCEIRO" style="rounded=0;whiteSpace=wrap;html=1;" parent="jKxIUuqLX2hnxJrICWpl-3" vertex="1">
          <mxGeometry x="45" y="160" width="120" height="60" as="geometry" />
        </mxCell>
        <mxCell id="QyJvAn82tEcCUQrwzSHf-87" value="TRANSFORMED" style="rounded=0;whiteSpace=wrap;html=1;" parent="jKxIUuqLX2hnxJrICWpl-3" vertex="1">
          <mxGeometry x="135" y="250" width="120" height="60" as="geometry" />
        </mxCell>
        <mxCell id="QyJvAn82tEcCUQrwzSHf-82" style="edgeStyle=orthogonalEdgeStyle;rounded=0;orthogonalLoop=1;jettySize=auto;html=1;entryX=0;entryY=0.5;entryDx=0;entryDy=0;" parent="jKxIUuqLX2hnxJrICWpl-3" source="QyJvAn82tEcCUQrwzSHf-83" target="QyJvAn82tEcCUQrwzSHf-87" edge="1">
          <mxGeometry relative="1" as="geometry">
            <mxPoint x="272" y="301" as="targetPoint" />
          </mxGeometry>
        </mxCell>
        <mxCell id="QyJvAn82tEcCUQrwzSHf-88" value="" style="sketch=0;outlineConnect=0;fontColor=#232F3E;gradientColor=none;fillColor=#3F8624;strokeColor=none;dashed=0;verticalLabelPosition=bottom;verticalAlign=top;align=center;html=1;fontSize=12;fontStyle=0;aspect=fixed;pointerEvents=1;shape=mxgraph.aws4.bucket_with_objects;" parent="jKxIUuqLX2hnxJrICWpl-3" vertex="1">
          <mxGeometry x="65" y="50" width="75" height="78" as="geometry" />
        </mxCell>
        <mxCell id="QyJvAn82tEcCUQrwzSHf-89" style="edgeStyle=orthogonalEdgeStyle;rounded=0;orthogonalLoop=1;jettySize=auto;html=1;entryX=0;entryY=0.5;entryDx=0;entryDy=0;exitX=0.5;exitY=1;exitDx=0;exitDy=0;" parent="jKxIUuqLX2hnxJrICWpl-3" source="QyJvAn82tEcCUQrwzSHf-87" target="QyJvAn82tEcCUQrwzSHf-90" edge="1">
          <mxGeometry relative="1" as="geometry">
            <mxPoint x="185" y="430" as="targetPoint" />
            <mxPoint x="185" y="330" as="sourcePoint" />
            <Array as="points">
              <mxPoint x="195" y="380" />
            </Array>
          </mxGeometry>
        </mxCell>
        <mxCell id="QyJvAn82tEcCUQrwzSHf-90" value="MX" style="rounded=0;whiteSpace=wrap;html=1;" parent="jKxIUuqLX2hnxJrICWpl-3" vertex="1">
          <mxGeometry x="215" y="350" width="120" height="60" as="geometry" />
        </mxCell>
        <mxCell id="jKxIUuqLX2hnxJrICWpl-11" value="CURATED" style="swimlane;whiteSpace=wrap;html=1;strokeWidth=2;fontSize=15;startSize=30;" parent="1" vertex="1">
          <mxGeometry x="-120" y="38.5" width="380" height="711.5" as="geometry" />
        </mxCell>
        <mxCell id="7yQBJyCF-TnzIUXyZK78-4" style="edgeStyle=orthogonalEdgeStyle;rounded=0;orthogonalLoop=1;jettySize=auto;html=1;entryX=0;entryY=0.5;entryDx=0;entryDy=0;" edge="1" parent="jKxIUuqLX2hnxJrICWpl-11" source="QyJvAn82tEcCUQrwzSHf-8" target="7yQBJyCF-TnzIUXyZK78-1">
          <mxGeometry relative="1" as="geometry" />
        </mxCell>
        <mxCell id="7yQBJyCF-TnzIUXyZK78-5" style="edgeStyle=orthogonalEdgeStyle;rounded=0;orthogonalLoop=1;jettySize=auto;html=1;entryX=0;entryY=0.5;entryDx=0;entryDy=0;" edge="1" parent="jKxIUuqLX2hnxJrICWpl-11" source="QyJvAn82tEcCUQrwzSHf-8" target="7yQBJyCF-TnzIUXyZK78-2">
          <mxGeometry relative="1" as="geometry" />
        </mxCell>
        <mxCell id="QyJvAn82tEcCUQrwzSHf-8" value="ENTIDADES" style="rounded=0;whiteSpace=wrap;html=1;" parent="jKxIUuqLX2hnxJrICWpl-11" vertex="1">
          <mxGeometry x="45" y="176" width="120" height="60" as="geometry" />
        </mxCell>
        <mxCell id="QyJvAn82tEcCUQrwzSHf-10" value="CONJUNTOS" style="rounded=0;whiteSpace=wrap;html=1;" parent="jKxIUuqLX2hnxJrICWpl-11" vertex="1">
          <mxGeometry x="135" y="266" width="120" height="60" as="geometry" />
        </mxCell>
        <mxCell id="QyJvAn82tEcCUQrwzSHf-9" style="edgeStyle=orthogonalEdgeStyle;rounded=0;orthogonalLoop=1;jettySize=auto;html=1;entryX=0;entryY=0.5;entryDx=0;entryDy=0;" parent="jKxIUuqLX2hnxJrICWpl-11" source="QyJvAn82tEcCUQrwzSHf-8" target="QyJvAn82tEcCUQrwzSHf-10" edge="1">
          <mxGeometry relative="1" as="geometry">
            <mxPoint x="272" y="317" as="targetPoint" />
          </mxGeometry>
        </mxCell>
        <mxCell id="QyJvAn82tEcCUQrwzSHf-13" value="" style="sketch=0;outlineConnect=0;fontColor=#232F3E;gradientColor=none;fillColor=#3F8624;strokeColor=none;dashed=0;verticalLabelPosition=bottom;verticalAlign=top;align=center;html=1;fontSize=12;fontStyle=0;aspect=fixed;pointerEvents=1;shape=mxgraph.aws4.bucket_with_objects;" parent="jKxIUuqLX2hnxJrICWpl-11" vertex="1">
          <mxGeometry x="65" y="66" width="75" height="78" as="geometry" />
        </mxCell>
        <mxCell id="7yQBJyCF-TnzIUXyZK78-1" value="COMPONENTES" style="rounded=0;whiteSpace=wrap;html=1;" vertex="1" parent="jKxIUuqLX2hnxJrICWpl-11">
          <mxGeometry x="135" y="361.5" width="120" height="60" as="geometry" />
        </mxCell>
        <mxCell id="7yQBJyCF-TnzIUXyZK78-2" value="MODELCODE" style="rounded=0;whiteSpace=wrap;html=1;" vertex="1" parent="jKxIUuqLX2hnxJrICWpl-11">
          <mxGeometry x="135" y="461.5" width="120" height="60" as="geometry" />
        </mxCell>
        <mxCell id="jKxIUuqLX2hnxJrICWpl-18" value="LOGS (TBD)" style="swimlane;whiteSpace=wrap;html=1;strokeWidth=2;fontSize=15;startSize=30;" parent="1" vertex="1">
          <mxGeometry x="-530" y="1040" width="189" height="192" as="geometry" />
        </mxCell>
        <mxCell id="jKxIUuqLX2hnxJrICWpl-22" value="" style="sketch=0;outlineConnect=0;fontColor=#232F3E;gradientColor=none;fillColor=#3F8624;strokeColor=none;dashed=0;verticalLabelPosition=bottom;verticalAlign=top;align=center;html=1;fontSize=12;fontStyle=0;aspect=fixed;pointerEvents=1;shape=mxgraph.aws4.bucket_with_objects;" parent="jKxIUuqLX2hnxJrICWpl-18" vertex="1">
          <mxGeometry x="65" y="66" width="75" height="78" as="geometry" />
        </mxCell>
        <mxCell id="bFuXjyLYvYQUJaQUUviW-13" style="edgeStyle=orthogonalEdgeStyle;rounded=0;orthogonalLoop=1;jettySize=auto;html=1;" parent="1" source="9OgxW9LWYbTT5vz3eAgh-3" target="bFuXjyLYvYQUJaQUUviW-12" edge="1">
          <mxGeometry relative="1" as="geometry">
            <mxPoint x="940" y="190" as="targetPoint" />
          </mxGeometry>
        </mxCell>
        <mxCell id="9OgxW9LWYbTT5vz3eAgh-3" value="LANDING" style="rounded=0;whiteSpace=wrap;html=1;" parent="1" vertex="1">
          <mxGeometry x="880" y="279" width="120" height="60" as="geometry" />
        </mxCell>
        <mxCell id="fNkwFlI_HfW9Xe8XkjoH-5" style="edgeStyle=orthogonalEdgeStyle;rounded=0;orthogonalLoop=1;jettySize=auto;html=1;" parent="1" source="9OgxW9LWYbTT5vz3eAgh-4" edge="1">
          <mxGeometry relative="1" as="geometry">
            <mxPoint x="1310" y="220" as="targetPoint" />
          </mxGeometry>
        </mxCell>
        <mxCell id="fNkwFlI_HfW9Xe8XkjoH-10" style="edgeStyle=orthogonalEdgeStyle;rounded=0;orthogonalLoop=1;jettySize=auto;html=1;" parent="1" edge="1">
          <mxGeometry relative="1" as="geometry">
            <mxPoint x="1184" y="363" as="sourcePoint" />
            <mxPoint x="1459" y="396" as="targetPoint" />
            <Array as="points">
              <mxPoint x="1310" y="363" />
              <mxPoint x="1310" y="396" />
            </Array>
          </mxGeometry>
        </mxCell>
        <mxCell id="9OgxW9LWYbTT5vz3eAgh-4" value="PROCESSED" style="rounded=0;whiteSpace=wrap;html=1;" parent="1" vertex="1">
          <mxGeometry x="1064" y="333" width="120" height="60" as="geometry" />
        </mxCell>
        <mxCell id="fNkwFlI_HfW9Xe8XkjoH-2" style="edgeStyle=orthogonalEdgeStyle;rounded=0;orthogonalLoop=1;jettySize=auto;html=1;entryX=0.5;entryY=0;entryDx=0;entryDy=0;" parent="1" source="9OgxW9LWYbTT5vz3eAgh-9" target="9OgxW9LWYbTT5vz3eAgh-4" edge="1">
          <mxGeometry relative="1" as="geometry" />
        </mxCell>
        <mxCell id="fNkwFlI_HfW9Xe8XkjoH-3" value="PARQUET" style="edgeLabel;html=1;align=center;verticalAlign=middle;resizable=0;points=[];" parent="fNkwFlI_HfW9Xe8XkjoH-2" vertex="1" connectable="0">
          <mxGeometry x="-0.0117" y="1" relative="1" as="geometry">
            <mxPoint as="offset" />
          </mxGeometry>
        </mxCell>
        <mxCell id="9OgxW9LWYbTT5vz3eAgh-9" value="" style="sketch=0;points=[[0,0,0],[0.25,0,0],[0.5,0,0],[0.75,0,0],[1,0,0],[0,1,0],[0.25,1,0],[0.5,1,0],[0.75,1,0],[1,1,0],[0,0.25,0],[0,0.5,0],[0,0.75,0],[1,0.25,0],[1,0.5,0],[1,0.75,0]];outlineConnect=0;fontColor=#232F3E;gradientColor=#945DF2;gradientDirection=north;fillColor=#5A30B5;strokeColor=#ffffff;dashed=0;verticalLabelPosition=bottom;verticalAlign=top;align=center;html=1;fontSize=12;fontStyle=0;aspect=fixed;shape=mxgraph.aws4.resourceIcon;resIcon=mxgraph.aws4.glue;" parent="1" vertex="1">
          <mxGeometry x="1085" y="141" width="78" height="78" as="geometry" />
        </mxCell>
        <mxCell id="9OgxW9LWYbTT5vz3eAgh-12" style="edgeStyle=orthogonalEdgeStyle;rounded=0;orthogonalLoop=1;jettySize=auto;html=1;" parent="1" source="9OgxW9LWYbTT5vz3eAgh-13" target="9OgxW9LWYbTT5vz3eAgh-17" edge="1">
          <mxGeometry relative="1" as="geometry" />
        </mxCell>
        <mxCell id="9OgxW9LWYbTT5vz3eAgh-13" value="TRANSFORMED" style="rounded=0;whiteSpace=wrap;html=1;" parent="1" vertex="1">
          <mxGeometry x="1438" y="255" width="120" height="60" as="geometry" />
        </mxCell>
        <mxCell id="fNkwFlI_HfW9Xe8XkjoH-8" style="edgeStyle=orthogonalEdgeStyle;rounded=0;orthogonalLoop=1;jettySize=auto;html=1;" parent="1" source="9OgxW9LWYbTT5vz3eAgh-17" target="fNkwFlI_HfW9Xe8XkjoH-7" edge="1">
          <mxGeometry relative="1" as="geometry" />
        </mxCell>
        <mxCell id="9OgxW9LWYbTT5vz3eAgh-17" value="" style="sketch=0;outlineConnect=0;fontColor=#232F3E;gradientColor=none;fillColor=#4D27AA;strokeColor=none;dashed=0;verticalLabelPosition=bottom;verticalAlign=top;align=center;html=1;fontSize=12;fontStyle=0;aspect=fixed;pointerEvents=1;shape=mxgraph.aws4.glue_crawlers;" parent="1" vertex="1">
          <mxGeometry x="1459" y="357" width="78" height="78" as="geometry" />
        </mxCell>
        <mxCell id="9OgxW9LWYbTT5vz3eAgh-18" style="edgeStyle=orthogonalEdgeStyle;rounded=0;orthogonalLoop=1;jettySize=auto;html=1;entryX=1;entryY=0.5;entryDx=0;entryDy=0;" parent="1" source="9OgxW9LWYbTT5vz3eAgh-19" edge="1">
          <mxGeometry relative="1" as="geometry">
            <mxPoint x="1164" y="579" as="targetPoint" />
          </mxGeometry>
        </mxCell>
        <mxCell id="9OgxW9LWYbTT5vz3eAgh-46" style="edgeStyle=orthogonalEdgeStyle;rounded=0;orthogonalLoop=1;jettySize=auto;html=1;entryX=0.5;entryY=0;entryDx=0;entryDy=0;exitX=0.5;exitY=1;exitDx=0;exitDy=0;exitPerimeter=0;" parent="1" source="9OgxW9LWYbTT5vz3eAgh-37" target="9OgxW9LWYbTT5vz3eAgh-44" edge="1">
          <mxGeometry relative="1" as="geometry" />
        </mxCell>
        <mxCell id="9OgxW9LWYbTT5vz3eAgh-19" value="" style="sketch=0;points=[[0,0,0],[0.25,0,0],[0.5,0,0],[0.75,0,0],[1,0,0],[0,1,0],[0.25,1,0],[0.5,1,0],[0.75,1,0],[1,1,0],[0,0.25,0],[0,0.5,0],[0,0.75,0],[1,0.25,0],[1,0.5,0],[1,0.75,0]];outlineConnect=0;fontColor=#232F3E;gradientColor=#945DF2;gradientDirection=north;fillColor=#5A30B5;strokeColor=#ffffff;dashed=0;verticalLabelPosition=bottom;verticalAlign=top;align=center;html=1;fontSize=12;fontStyle=0;aspect=fixed;shape=mxgraph.aws4.resourceIcon;resIcon=mxgraph.aws4.glue;" parent="1" vertex="1">
          <mxGeometry x="1275" y="540" width="78" height="78" as="geometry" />
        </mxCell>
        <mxCell id="9OgxW9LWYbTT5vz3eAgh-25" value="&lt;font style=&quot;font-size: 22px;&quot;&gt;1&lt;/font&gt;" style="text;html=1;strokeColor=none;fillColor=#000000;align=center;verticalAlign=middle;whiteSpace=wrap;rounded=1;strokeWidth=4;glass=0;fontColor=#ffffff;arcSize=50;" parent="1" vertex="1">
          <mxGeometry x="621" y="179" width="30" height="30" as="geometry" />
        </mxCell>
        <mxCell id="9OgxW9LWYbTT5vz3eAgh-26" value="&lt;font style=&quot;font-size: 22px;&quot;&gt;2&lt;/font&gt;" style="text;html=1;strokeColor=none;fillColor=#000000;align=center;verticalAlign=middle;whiteSpace=wrap;rounded=1;strokeWidth=4;glass=0;fontColor=#ffffff;arcSize=50;" parent="1" vertex="1">
          <mxGeometry x="1105" y="101" width="30" height="30" as="geometry" />
        </mxCell>
        <mxCell id="9OgxW9LWYbTT5vz3eAgh-27" value="&lt;font style=&quot;font-size: 22px;&quot;&gt;3&lt;/font&gt;" style="text;html=1;strokeColor=none;fillColor=#000000;align=center;verticalAlign=middle;whiteSpace=wrap;rounded=1;strokeWidth=4;glass=0;fontColor=#ffffff;arcSize=50;" parent="1" vertex="1">
          <mxGeometry x="1558" y="367" width="30" height="30" as="geometry" />
        </mxCell>
        <mxCell id="9OgxW9LWYbTT5vz3eAgh-29" value="&lt;font style=&quot;font-size: 22px;&quot;&gt;5&lt;/font&gt;" style="text;html=1;strokeColor=none;fillColor=#000000;align=center;verticalAlign=middle;whiteSpace=wrap;rounded=1;strokeWidth=4;glass=0;fontColor=#ffffff;arcSize=50;" parent="1" vertex="1">
          <mxGeometry x="1299" y="490" width="30" height="30" as="geometry" />
        </mxCell>
        <mxCell id="9OgxW9LWYbTT5vz3eAgh-37" value="RDS SQL -&amp;nbsp;&lt;br&gt;QUINTIQ DW &lt;br&gt;STAGE" style="sketch=0;points=[[0,0,0],[0.25,0,0],[0.5,0,0],[0.75,0,0],[1,0,0],[0,1,0],[0.25,1,0],[0.5,1,0],[0.75,1,0],[1,1,0],[0,0.25,0],[0,0.5,0],[0,0.75,0],[1,0.25,0],[1,0.5,0],[1,0.75,0]];outlineConnect=0;fontColor=#232F3E;gradientColor=#4D72F3;gradientDirection=north;fillColor=#3334B9;strokeColor=#ffffff;dashed=0;verticalLabelPosition=top;verticalAlign=bottom;align=center;html=1;fontSize=12;fontStyle=0;aspect=fixed;shape=mxgraph.aws4.resourceIcon;resIcon=mxgraph.aws4.aurora;labelPosition=center;" parent="1" vertex="1">
          <mxGeometry x="1086" y="540" width="78" height="78" as="geometry" />
        </mxCell>
        <mxCell id="9OgxW9LWYbTT5vz3eAgh-41" value="" style="sketch=0;outlineConnect=0;fontColor=#232F3E;gradientColor=none;fillColor=#3F8624;strokeColor=none;dashed=0;verticalLabelPosition=bottom;verticalAlign=top;align=center;html=1;fontSize=12;fontStyle=0;aspect=fixed;pointerEvents=1;shape=mxgraph.aws4.bucket_with_objects;" parent="1" vertex="1">
          <mxGeometry x="880" y="243" width="30.77" height="32" as="geometry" />
        </mxCell>
        <mxCell id="9OgxW9LWYbTT5vz3eAgh-42" value="" style="sketch=0;outlineConnect=0;fontColor=#232F3E;gradientColor=none;fillColor=#3F8624;strokeColor=none;dashed=0;verticalLabelPosition=bottom;verticalAlign=top;align=center;html=1;fontSize=12;fontStyle=0;aspect=fixed;pointerEvents=1;shape=mxgraph.aws4.bucket_with_objects;" parent="1" vertex="1">
          <mxGeometry x="1527.23" y="219" width="30.77" height="32" as="geometry" />
        </mxCell>
        <mxCell id="9OgxW9LWYbTT5vz3eAgh-43" value="" style="sketch=0;outlineConnect=0;fontColor=#232F3E;gradientColor=none;fillColor=#3F8624;strokeColor=none;dashed=0;verticalLabelPosition=bottom;verticalAlign=top;align=center;html=1;fontSize=12;fontStyle=0;aspect=fixed;pointerEvents=1;shape=mxgraph.aws4.bucket_with_objects;" parent="1" vertex="1">
          <mxGeometry x="1064" y="293" width="30.77" height="32" as="geometry" />
        </mxCell>
        <mxCell id="9OgxW9LWYbTT5vz3eAgh-44" value="DB BACKUP" style="rounded=0;whiteSpace=wrap;html=1;" parent="1" vertex="1">
          <mxGeometry x="1065" y="700" width="120" height="60" as="geometry" />
        </mxCell>
        <mxCell id="9OgxW9LWYbTT5vz3eAgh-45" value="" style="sketch=0;outlineConnect=0;fontColor=#232F3E;gradientColor=none;fillColor=#3F8624;strokeColor=none;dashed=0;verticalLabelPosition=bottom;verticalAlign=top;align=center;html=1;fontSize=12;fontStyle=0;aspect=fixed;pointerEvents=1;shape=mxgraph.aws4.bucket_with_objects;" parent="1" vertex="1">
          <mxGeometry x="1064" y="663" width="30.77" height="32" as="geometry" />
        </mxCell>
        <mxCell id="9OgxW9LWYbTT5vz3eAgh-49" style="edgeStyle=orthogonalEdgeStyle;rounded=0;orthogonalLoop=1;jettySize=auto;html=1;entryX=0;entryY=0.5;entryDx=0;entryDy=0;entryPerimeter=0;" parent="1" source="9OgxW9LWYbTT5vz3eAgh-48" target="9OgxW9LWYbTT5vz3eAgh-37" edge="1">
          <mxGeometry relative="1" as="geometry">
            <Array as="points">
              <mxPoint x="885" y="579" />
            </Array>
          </mxGeometry>
        </mxCell>
        <mxCell id="9OgxW9LWYbTT5vz3eAgh-51" style="edgeStyle=orthogonalEdgeStyle;rounded=0;orthogonalLoop=1;jettySize=auto;html=1;" parent="1" source="9OgxW9LWYbTT5vz3eAgh-48" target="9OgxW9LWYbTT5vz3eAgh-50" edge="1">
          <mxGeometry relative="1" as="geometry" />
        </mxCell>
        <mxCell id="9OgxW9LWYbTT5vz3eAgh-48" value="Quintiq QAE" style="sketch=0;points=[[0,0,0],[0.25,0,0],[0.5,0,0],[0.75,0,0],[1,0,0],[0,1,0],[0.25,1,0],[0.5,1,0],[0.75,1,0],[1,1,0],[0,0.25,0],[0,0.5,0],[0,0.75,0],[1,0.25,0],[1,0.5,0],[1,0.75,0]];outlineConnect=0;fontColor=#232F3E;gradientColor=#F78E04;gradientDirection=north;fillColor=#D05C17;strokeColor=#ffffff;dashed=0;verticalLabelPosition=middle;verticalAlign=middle;align=right;html=1;fontSize=12;fontStyle=0;aspect=fixed;shape=mxgraph.aws4.resourceIcon;resIcon=mxgraph.aws4.ec2;labelPosition=left;" parent="1" vertex="1">
          <mxGeometry x="846" y="640" width="78" height="78" as="geometry" />
        </mxCell>
        <mxCell id="9OgxW9LWYbTT5vz3eAgh-50" value="RDS SQL Server" style="image;aspect=fixed;html=1;points=[];align=center;fontSize=12;image=img/lib/azure2/databases/SQL_Server.svg;" parent="1" vertex="1">
          <mxGeometry x="851" y="768" width="68" height="68" as="geometry" />
        </mxCell>
        <mxCell id="9OgxW9LWYbTT5vz3eAgh-58" style="edgeStyle=orthogonalEdgeStyle;rounded=0;orthogonalLoop=1;jettySize=auto;html=1;entryX=0;entryY=0.5;entryDx=0;entryDy=0;entryPerimeter=0;" parent="1" source="9OgxW9LWYbTT5vz3eAgh-57" target="bFuXjyLYvYQUJaQUUviW-12" edge="1">
          <mxGeometry relative="1" as="geometry" />
        </mxCell>
        <mxCell id="9OgxW9LWYbTT5vz3eAgh-59" value="API" style="edgeLabel;html=1;align=center;verticalAlign=middle;resizable=0;points=[];" parent="9OgxW9LWYbTT5vz3eAgh-58" vertex="1" connectable="0">
          <mxGeometry x="-0.0702" y="1" relative="1" as="geometry">
            <mxPoint as="offset" />
          </mxGeometry>
        </mxCell>
        <mxCell id="9OgxW9LWYbTT5vz3eAgh-57" value="INCA" style="sketch=0;shadow=0;dashed=0;html=1;strokeColor=none;fillColor=#505050;labelPosition=center;verticalLabelPosition=bottom;verticalAlign=top;outlineConnect=0;align=center;shape=mxgraph.office.databases.database_cube;" parent="1" vertex="1">
          <mxGeometry x="692.22" y="70" width="47" height="52" as="geometry" />
        </mxCell>
        <mxCell id="bFuXjyLYvYQUJaQUUviW-8" style="edgeStyle=orthogonalEdgeStyle;rounded=0;orthogonalLoop=1;jettySize=auto;html=1;entryX=0;entryY=0.5;entryDx=0;entryDy=0;entryPerimeter=0;" parent="1" source="9OgxW9LWYbTT5vz3eAgh-61" target="bFuXjyLYvYQUJaQUUviW-10" edge="1">
          <mxGeometry relative="1" as="geometry">
            <mxPoint x="671" y="273.5" as="targetPoint" />
          </mxGeometry>
        </mxCell>
        <mxCell id="bFuXjyLYvYQUJaQUUviW-9" value="RVS" style="edgeLabel;html=1;align=center;verticalAlign=middle;resizable=0;points=[];" parent="bFuXjyLYvYQUJaQUUviW-8" vertex="1" connectable="0">
          <mxGeometry x="0.362" y="6" relative="1" as="geometry">
            <mxPoint x="-33" y="-2" as="offset" />
          </mxGeometry>
        </mxCell>
        <mxCell id="9OgxW9LWYbTT5vz3eAgh-61" value="onPremise - VW" style="swimlane;whiteSpace=wrap;html=1;" parent="1" vertex="1">
          <mxGeometry x="350" y="136.5" width="220" height="274" as="geometry" />
        </mxCell>
        <mxCell id="9OgxW9LWYbTT5vz3eAgh-62" value="" style="sketch=0;outlineConnect=0;fontColor=#232F3E;gradientColor=none;fillColor=#067F68;strokeColor=none;dashed=0;verticalLabelPosition=bottom;verticalAlign=top;align=center;html=1;fontSize=12;fontStyle=0;aspect=fixed;shape=mxgraph.aws4.transfer_for_sftp_resource;" parent="9OgxW9LWYbTT5vz3eAgh-61" vertex="1">
          <mxGeometry x="19.999999999999773" y="40" width="76" height="78" as="geometry" />
        </mxCell>
        <mxCell id="9OgxW9LWYbTT5vz3eAgh-63" value="" style="image;sketch=0;aspect=fixed;html=1;points=[];align=center;fontSize=12;image=img/lib/mscae/SAP_HANA_on_Azure.svg;" parent="9OgxW9LWYbTT5vz3eAgh-61" vertex="1">
          <mxGeometry x="19.999999999999773" y="213" width="90" height="45" as="geometry" />
        </mxCell>
        <mxCell id="9OgxW9LWYbTT5vz3eAgh-64" value="" style="image;aspect=fixed;perimeter=ellipsePerimeter;html=1;align=center;shadow=0;dashed=0;spacingTop=3;image=img/lib/active_directory/mainframe_host.svg;" parent="9OgxW9LWYbTT5vz3eAgh-61" vertex="1">
          <mxGeometry x="130" y="160" width="62.64" height="87" as="geometry" />
        </mxCell>
        <mxCell id="bFuXjyLYvYQUJaQUUviW-1" value="XLSX" style="whiteSpace=wrap;html=1;shape=mxgraph.basic.document" parent="9OgxW9LWYbTT5vz3eAgh-61" vertex="1">
          <mxGeometry x="130" y="58" width="49" height="60" as="geometry" />
        </mxCell>
        <mxCell id="bFuXjyLYvYQUJaQUUviW-11" style="edgeStyle=orthogonalEdgeStyle;rounded=0;orthogonalLoop=1;jettySize=auto;html=1;" parent="1" source="bFuXjyLYvYQUJaQUUviW-10" target="9OgxW9LWYbTT5vz3eAgh-3" edge="1">
          <mxGeometry relative="1" as="geometry" />
        </mxCell>
        <mxCell id="bFuXjyLYvYQUJaQUUviW-10" value="RVS Station" style="sketch=0;points=[[0,0,0],[0.25,0,0],[0.5,0,0],[0.75,0,0],[1,0,0],[0,1,0],[0.25,1,0],[0.5,1,0],[0.75,1,0],[1,1,0],[0,0.25,0],[0,0.5,0],[0,0.75,0],[1,0.25,0],[1,0.5,0],[1,0.75,0]];outlineConnect=0;fontColor=#232F3E;gradientColor=#F78E04;gradientDirection=north;fillColor=#D05C17;strokeColor=#ffffff;dashed=0;verticalLabelPosition=bottom;verticalAlign=top;align=center;html=1;fontSize=12;fontStyle=0;aspect=fixed;shape=mxgraph.aws4.resourceIcon;resIcon=mxgraph.aws4.ec2;labelPosition=center;" parent="1" vertex="1">
          <mxGeometry x="701" y="234.5" width="78" height="78" as="geometry" />
        </mxCell>
        <mxCell id="bFuXjyLYvYQUJaQUUviW-14" style="edgeStyle=orthogonalEdgeStyle;rounded=0;orthogonalLoop=1;jettySize=auto;html=1;" parent="1" source="bFuXjyLYvYQUJaQUUviW-12" target="9OgxW9LWYbTT5vz3eAgh-9" edge="1">
          <mxGeometry relative="1" as="geometry" />
        </mxCell>
        <mxCell id="bFuXjyLYvYQUJaQUUviW-12" value="" style="sketch=0;points=[[0,0,0],[0.25,0,0],[0.5,0,0],[0.75,0,0],[1,0,0],[0,1,0],[0.25,1,0],[0.5,1,0],[0.75,1,0],[1,1,0],[0,0.25,0],[0,0.5,0],[0,0.75,0],[1,0.25,0],[1,0.5,0],[1,0.75,0]];outlineConnect=0;fontColor=#232F3E;gradientColor=#F78E04;gradientDirection=north;fillColor=#D05C17;strokeColor=#ffffff;dashed=0;verticalLabelPosition=bottom;verticalAlign=top;align=center;html=1;fontSize=12;fontStyle=0;aspect=fixed;shape=mxgraph.aws4.resourceIcon;resIcon=mxgraph.aws4.lambda;" parent="1" vertex="1">
          <mxGeometry x="901" y="141" width="78" height="78" as="geometry" />
        </mxCell>
        <mxCell id="fNkwFlI_HfW9Xe8XkjoH-6" style="edgeStyle=orthogonalEdgeStyle;rounded=0;orthogonalLoop=1;jettySize=auto;html=1;" parent="1" source="fNkwFlI_HfW9Xe8XkjoH-4" target="9OgxW9LWYbTT5vz3eAgh-13" edge="1">
          <mxGeometry relative="1" as="geometry" />
        </mxCell>
        <mxCell id="fNkwFlI_HfW9Xe8XkjoH-4" value="" style="sketch=0;points=[[0,0,0],[0.25,0,0],[0.5,0,0],[0.75,0,0],[1,0,0],[0,1,0],[0.25,1,0],[0.5,1,0],[0.75,1,0],[1,1,0],[0,0.25,0],[0,0.5,0],[0,0.75,0],[1,0.25,0],[1,0.5,0],[1,0.75,0]];outlineConnect=0;fontColor=#232F3E;gradientColor=#945DF2;gradientDirection=north;fillColor=#5A30B5;strokeColor=#ffffff;dashed=0;verticalLabelPosition=bottom;verticalAlign=top;align=center;html=1;fontSize=12;fontStyle=0;aspect=fixed;shape=mxgraph.aws4.resourceIcon;resIcon=mxgraph.aws4.glue;" parent="1" vertex="1">
          <mxGeometry x="1270" y="141" width="78" height="78" as="geometry" />
        </mxCell>
        <mxCell id="fNkwFlI_HfW9Xe8XkjoH-9" style="edgeStyle=orthogonalEdgeStyle;rounded=0;orthogonalLoop=1;jettySize=auto;html=1;" parent="1" source="fNkwFlI_HfW9Xe8XkjoH-7" target="9OgxW9LWYbTT5vz3eAgh-19" edge="1">
          <mxGeometry relative="1" as="geometry" />
        </mxCell>
        <mxCell id="fNkwFlI_HfW9Xe8XkjoH-7" value="" style="sketch=0;outlineConnect=0;fontColor=#232F3E;gradientColor=none;fillColor=#8C4FFF;strokeColor=none;dashed=0;verticalLabelPosition=bottom;verticalAlign=top;align=center;html=1;fontSize=12;fontStyle=0;aspect=fixed;pointerEvents=1;shape=mxgraph.aws4.glue_data_catalog;" parent="1" vertex="1">
          <mxGeometry x="1462" y="540" width="72" height="78" as="geometry" />
        </mxCell>
      </root>
    </mxGraphModel>
  </diagram>
  <diagram id="JXDWDgEgZbDX6HJaCq6t" name="Página-2">
    <mxGraphModel dx="1434" dy="765" grid="1" gridSize="10" guides="1" tooltips="1" connect="1" arrows="1" fold="1" page="1" pageScale="1" pageWidth="1169" pageHeight="827" math="0" shadow="0">
      <root>
        <mxCell id="0" />
        <mxCell id="1" parent="0" />
        <mxCell id="rITT0Y_aekzjFSJYPthh-9" style="edgeStyle=orthogonalEdgeStyle;rounded=0;orthogonalLoop=1;jettySize=auto;html=1;entryX=0;entryY=0.5;entryDx=0;entryDy=0;curved=1;" parent="1" source="co1VUZ7CqjnDsOv-ijp1-21" target="rITT0Y_aekzjFSJYPthh-2" edge="1">
          <mxGeometry relative="1" as="geometry" />
        </mxCell>
        <mxCell id="rITT0Y_aekzjFSJYPthh-10" style="edgeStyle=orthogonalEdgeStyle;curved=1;rounded=0;orthogonalLoop=1;jettySize=auto;html=1;entryX=0;entryY=0.5;entryDx=0;entryDy=0;" parent="1" source="co1VUZ7CqjnDsOv-ijp1-21" target="co1VUZ7CqjnDsOv-ijp1-51" edge="1">
          <mxGeometry relative="1" as="geometry" />
        </mxCell>
        <mxCell id="rITT0Y_aekzjFSJYPthh-39" style="edgeStyle=orthogonalEdgeStyle;curved=1;rounded=0;orthogonalLoop=1;jettySize=auto;html=1;entryX=0;entryY=0.5;entryDx=0;entryDy=0;" parent="1" source="co1VUZ7CqjnDsOv-ijp1-21" target="rITT0Y_aekzjFSJYPthh-3" edge="1">
          <mxGeometry relative="1" as="geometry">
            <Array as="points">
              <mxPoint x="270" y="406" />
              <mxPoint x="270" y="490" />
            </Array>
          </mxGeometry>
        </mxCell>
        <mxCell id="co1VUZ7CqjnDsOv-ijp1-21" value="MX" style="rounded=1;whiteSpace=wrap;html=1;arcSize=50;fillColor=#dae8fc;strokeColor=#6c8ebf;" parent="1" vertex="1">
          <mxGeometry x="50" y="396" width="120" height="20" as="geometry" />
        </mxCell>
        <mxCell id="rITT0Y_aekzjFSJYPthh-25" style="edgeStyle=orthogonalEdgeStyle;curved=1;rounded=0;orthogonalLoop=1;jettySize=auto;html=1;entryX=0.75;entryY=0;entryDx=0;entryDy=0;" parent="1" source="co1VUZ7CqjnDsOv-ijp1-28" target="rITT0Y_aekzjFSJYPthh-2" edge="1">
          <mxGeometry relative="1" as="geometry" />
        </mxCell>
        <mxCell id="co1VUZ7CqjnDsOv-ijp1-28" value="PRODUCT_COMPONENTES (GROUP)" style="rounded=1;whiteSpace=wrap;html=1;arcSize=50;" parent="1" vertex="1">
          <mxGeometry x="330" y="250" width="280" height="20" as="geometry" />
        </mxCell>
        <mxCell id="rITT0Y_aekzjFSJYPthh-8" style="edgeStyle=orthogonalEdgeStyle;rounded=0;orthogonalLoop=1;jettySize=auto;html=1;entryX=0;entryY=0.5;entryDx=0;entryDy=0;curved=1;" parent="1" source="co1VUZ7CqjnDsOv-ijp1-33" target="co1VUZ7CqjnDsOv-ijp1-28" edge="1">
          <mxGeometry relative="1" as="geometry" />
        </mxCell>
        <mxCell id="co1VUZ7CqjnDsOv-ijp1-33" value="TEVON" style="rounded=1;whiteSpace=wrap;html=1;arcSize=50;fillColor=#d5e8d4;strokeColor=#82b366;" parent="1" vertex="1">
          <mxGeometry x="50" y="250" width="120" height="20" as="geometry" />
        </mxCell>
        <mxCell id="rITT0Y_aekzjFSJYPthh-5" style="edgeStyle=orthogonalEdgeStyle;rounded=0;orthogonalLoop=1;jettySize=auto;html=1;entryX=0;entryY=0.5;entryDx=0;entryDy=0;curved=1;" parent="1" source="co1VUZ7CqjnDsOv-ijp1-42" target="co1VUZ7CqjnDsOv-ijp1-47" edge="1">
          <mxGeometry relative="1" as="geometry" />
        </mxCell>
        <mxCell id="rITT0Y_aekzjFSJYPthh-6" style="edgeStyle=orthogonalEdgeStyle;rounded=0;orthogonalLoop=1;jettySize=auto;html=1;entryX=0;entryY=0.5;entryDx=0;entryDy=0;curved=1;" parent="1" source="co1VUZ7CqjnDsOv-ijp1-42" target="co1VUZ7CqjnDsOv-ijp1-45" edge="1">
          <mxGeometry relative="1" as="geometry" />
        </mxCell>
        <mxCell id="rITT0Y_aekzjFSJYPthh-7" style="edgeStyle=orthogonalEdgeStyle;rounded=0;orthogonalLoop=1;jettySize=auto;html=1;entryX=0;entryY=0.5;entryDx=0;entryDy=0;curved=1;" parent="1" source="co1VUZ7CqjnDsOv-ijp1-42" target="rITT0Y_aekzjFSJYPthh-1" edge="1">
          <mxGeometry relative="1" as="geometry" />
        </mxCell>
        <mxCell id="co1VUZ7CqjnDsOv-ijp1-42" value="INCA" style="rounded=1;whiteSpace=wrap;html=1;arcSize=50;fillColor=#f5f5f5;strokeColor=#666666;fontColor=#333333;" parent="1" vertex="1">
          <mxGeometry x="50" y="100" width="120" height="20" as="geometry" />
        </mxCell>
        <mxCell id="NWs5Fd67C6g_4bXD_am0-2" style="edgeStyle=orthogonalEdgeStyle;curved=1;rounded=0;orthogonalLoop=1;jettySize=auto;html=1;entryX=0.292;entryY=-0.083;entryDx=0;entryDy=0;entryPerimeter=0;exitX=1;exitY=0.5;exitDx=0;exitDy=0;" parent="1" source="co1VUZ7CqjnDsOv-ijp1-45" target="co1VUZ7CqjnDsOv-ijp1-53" edge="1">
          <mxGeometry relative="1" as="geometry">
            <Array as="points">
              <mxPoint x="690" y="110" />
              <mxPoint x="690" y="40" />
              <mxPoint x="1692" y="40" />
            </Array>
          </mxGeometry>
        </mxCell>
        <mxCell id="co1VUZ7CqjnDsOv-ijp1-45" value="UNITS_2" style="rounded=1;whiteSpace=wrap;html=1;arcSize=50;" parent="1" vertex="1">
          <mxGeometry x="340" y="100" width="280" height="20" as="geometry" />
        </mxCell>
        <mxCell id="co1VUZ7CqjnDsOv-ijp1-47" value="UNITS_1" style="rounded=1;whiteSpace=wrap;html=1;arcSize=50;" parent="1" vertex="1">
          <mxGeometry x="340" y="60" width="280" height="20" as="geometry" />
        </mxCell>
        <mxCell id="rITT0Y_aekzjFSJYPthh-16" style="edgeStyle=orthogonalEdgeStyle;curved=1;rounded=0;orthogonalLoop=1;jettySize=auto;html=1;entryX=0;entryY=0.5;entryDx=0;entryDy=0;" parent="1" source="co1VUZ7CqjnDsOv-ijp1-49" target="co1VUZ7CqjnDsOv-ijp1-52" edge="1">
          <mxGeometry relative="1" as="geometry" />
        </mxCell>
        <mxCell id="co1VUZ7CqjnDsOv-ijp1-49" value="ROUTING_COMPONENTES" style="rounded=1;whiteSpace=wrap;html=1;arcSize=50;" parent="1" vertex="1">
          <mxGeometry x="970" y="80" width="280" height="20" as="geometry" />
        </mxCell>
        <mxCell id="rITT0Y_aekzjFSJYPthh-18" style="edgeStyle=orthogonalEdgeStyle;curved=1;rounded=0;orthogonalLoop=1;jettySize=auto;html=1;entryX=0;entryY=0.5;entryDx=0;entryDy=0;" parent="1" source="co1VUZ7CqjnDsOv-ijp1-50" target="co1VUZ7CqjnDsOv-ijp1-52" edge="1">
          <mxGeometry relative="1" as="geometry" />
        </mxCell>
        <mxCell id="co1VUZ7CqjnDsOv-ijp1-50" value="ROUTING_VEICULOS" style="rounded=1;whiteSpace=wrap;html=1;arcSize=50;" parent="1" vertex="1">
          <mxGeometry x="970" y="160" width="280" height="20" as="geometry" />
        </mxCell>
        <mxCell id="rITT0Y_aekzjFSJYPthh-29" style="edgeStyle=orthogonalEdgeStyle;curved=1;rounded=0;orthogonalLoop=1;jettySize=auto;html=1;entryX=0.5;entryY=0;entryDx=0;entryDy=0;" parent="1" source="co1VUZ7CqjnDsOv-ijp1-51" target="rITT0Y_aekzjFSJYPthh-3" edge="1">
          <mxGeometry relative="1" as="geometry" />
        </mxCell>
        <mxCell id="co1VUZ7CqjnDsOv-ijp1-51" value="PRODUCT_PARENTIDS-CONJUNTOS" style="rounded=1;whiteSpace=wrap;html=1;arcSize=50;" parent="1" vertex="1">
          <mxGeometry x="370" y="420" width="280" height="20" as="geometry" />
        </mxCell>
        <mxCell id="rITT0Y_aekzjFSJYPthh-20" style="edgeStyle=orthogonalEdgeStyle;curved=1;rounded=0;orthogonalLoop=1;jettySize=auto;html=1;entryX=0;entryY=0.5;entryDx=0;entryDy=0;" parent="1" source="co1VUZ7CqjnDsOv-ijp1-52" target="co1VUZ7CqjnDsOv-ijp1-55" edge="1">
          <mxGeometry relative="1" as="geometry" />
        </mxCell>
        <mxCell id="rITT0Y_aekzjFSJYPthh-21" style="edgeStyle=orthogonalEdgeStyle;curved=1;rounded=0;orthogonalLoop=1;jettySize=auto;html=1;entryX=0;entryY=0.5;entryDx=0;entryDy=0;" parent="1" source="co1VUZ7CqjnDsOv-ijp1-52" target="co1VUZ7CqjnDsOv-ijp1-54" edge="1">
          <mxGeometry relative="1" as="geometry" />
        </mxCell>
        <mxCell id="rITT0Y_aekzjFSJYPthh-54" style="edgeStyle=orthogonalEdgeStyle;curved=1;rounded=0;orthogonalLoop=1;jettySize=auto;html=1;entryX=0.5;entryY=0;entryDx=0;entryDy=0;exitX=1;exitY=0.5;exitDx=0;exitDy=0;" parent="1" source="co1VUZ7CqjnDsOv-ijp1-52" target="co1VUZ7CqjnDsOv-ijp1-53" edge="1">
          <mxGeometry relative="1" as="geometry">
            <Array as="points">
              <mxPoint x="1630" y="150" />
              <mxPoint x="1750" y="150" />
            </Array>
          </mxGeometry>
        </mxCell>
        <mxCell id="co1VUZ7CqjnDsOv-ijp1-52" value="ROUTING_STEPS" style="rounded=1;whiteSpace=wrap;html=1;arcSize=50;" parent="1" vertex="1">
          <mxGeometry x="1350" y="120" width="280" height="20" as="geometry" />
        </mxCell>
        <mxCell id="rITT0Y_aekzjFSJYPthh-46" style="edgeStyle=orthogonalEdgeStyle;curved=1;rounded=0;orthogonalLoop=1;jettySize=auto;html=1;entryX=0.75;entryY=0;entryDx=0;entryDy=0;" parent="1" source="co1VUZ7CqjnDsOv-ijp1-53" target="co1VUZ7CqjnDsOv-ijp1-56" edge="1">
          <mxGeometry relative="1" as="geometry" />
        </mxCell>
        <mxCell id="co1VUZ7CqjnDsOv-ijp1-53" value="OPERATIONS_COMPONENTES" style="rounded=1;whiteSpace=wrap;html=1;arcSize=50;" parent="1" vertex="1">
          <mxGeometry x="1610" y="190" width="280" height="20" as="geometry" />
        </mxCell>
        <mxCell id="rITT0Y_aekzjFSJYPthh-48" style="edgeStyle=orthogonalEdgeStyle;curved=1;rounded=0;orthogonalLoop=1;jettySize=auto;html=1;entryX=0.75;entryY=0;entryDx=0;entryDy=0;" parent="1" source="co1VUZ7CqjnDsOv-ijp1-54" target="co1VUZ7CqjnDsOv-ijp1-57" edge="1">
          <mxGeometry relative="1" as="geometry" />
        </mxCell>
        <mxCell id="co1VUZ7CqjnDsOv-ijp1-54" value="OPERATIONS_VEICULOS" style="rounded=1;whiteSpace=wrap;html=1;arcSize=50;" parent="1" vertex="1">
          <mxGeometry x="1950" y="80" width="280" height="20" as="geometry" />
        </mxCell>
        <mxCell id="rITT0Y_aekzjFSJYPthh-45" style="edgeStyle=orthogonalEdgeStyle;curved=1;rounded=0;orthogonalLoop=1;jettySize=auto;html=1;entryX=0.75;entryY=0;entryDx=0;entryDy=0;" parent="1" source="co1VUZ7CqjnDsOv-ijp1-55" target="co1VUZ7CqjnDsOv-ijp1-58" edge="1">
          <mxGeometry relative="1" as="geometry" />
        </mxCell>
        <mxCell id="co1VUZ7CqjnDsOv-ijp1-55" value="OPERATIONS_CONJUNTOS" style="rounded=1;whiteSpace=wrap;html=1;arcSize=50;" parent="1" vertex="1">
          <mxGeometry x="1779" y="140" width="280" height="20" as="geometry" />
        </mxCell>
        <mxCell id="co1VUZ7CqjnDsOv-ijp1-56" value="BOM_COMPONENTES" style="rounded=1;whiteSpace=wrap;html=1;arcSize=50;" parent="1" vertex="1">
          <mxGeometry x="1499" y="378" width="280" height="20" as="geometry" />
        </mxCell>
        <mxCell id="co1VUZ7CqjnDsOv-ijp1-57" value="BOM_VEICULOS" style="rounded=1;whiteSpace=wrap;html=1;arcSize=50;" parent="1" vertex="1">
          <mxGeometry x="1819" y="514" width="280" height="20" as="geometry" />
        </mxCell>
        <mxCell id="co1VUZ7CqjnDsOv-ijp1-58" value="BOM_CONJUNTOS" style="rounded=1;whiteSpace=wrap;html=1;arcSize=50;" parent="1" vertex="1">
          <mxGeometry x="1649" y="448" width="280" height="20" as="geometry" />
        </mxCell>
        <mxCell id="rITT0Y_aekzjFSJYPthh-1" value="UNITS_CAPACITIES" style="rounded=1;whiteSpace=wrap;html=1;arcSize=50;" parent="1" vertex="1">
          <mxGeometry x="340" y="140" width="280" height="20" as="geometry" />
        </mxCell>
        <mxCell id="rITT0Y_aekzjFSJYPthh-26" style="edgeStyle=orthogonalEdgeStyle;curved=1;rounded=0;orthogonalLoop=1;jettySize=auto;html=1;entryX=0;entryY=0.25;entryDx=0;entryDy=0;" parent="1" source="rITT0Y_aekzjFSJYPthh-2" target="co1VUZ7CqjnDsOv-ijp1-56" edge="1">
          <mxGeometry relative="1" as="geometry" />
        </mxCell>
        <mxCell id="rITT0Y_aekzjFSJYPthh-42" style="edgeStyle=orthogonalEdgeStyle;curved=1;rounded=0;orthogonalLoop=1;jettySize=auto;html=1;entryX=0;entryY=0.5;entryDx=0;entryDy=0;" parent="1" source="rITT0Y_aekzjFSJYPthh-2" target="co1VUZ7CqjnDsOv-ijp1-49" edge="1">
          <mxGeometry relative="1" as="geometry" />
        </mxCell>
        <mxCell id="rITT0Y_aekzjFSJYPthh-2" value="PRODUCT_COMPONENTES (PARTNUMBER)" style="rounded=1;whiteSpace=wrap;html=1;arcSize=50;" parent="1" vertex="1">
          <mxGeometry x="370" y="380" width="280" height="20" as="geometry" />
        </mxCell>
        <mxCell id="rITT0Y_aekzjFSJYPthh-30" style="edgeStyle=orthogonalEdgeStyle;curved=1;rounded=0;orthogonalLoop=1;jettySize=auto;html=1;entryX=0;entryY=0.25;entryDx=0;entryDy=0;" parent="1" source="rITT0Y_aekzjFSJYPthh-3" target="co1VUZ7CqjnDsOv-ijp1-58" edge="1">
          <mxGeometry relative="1" as="geometry" />
        </mxCell>
        <mxCell id="rITT0Y_aekzjFSJYPthh-43" style="edgeStyle=orthogonalEdgeStyle;curved=1;rounded=0;orthogonalLoop=1;jettySize=auto;html=1;entryX=0;entryY=0.5;entryDx=0;entryDy=0;" parent="1" source="rITT0Y_aekzjFSJYPthh-3" target="rITT0Y_aekzjFSJYPthh-4" edge="1">
          <mxGeometry relative="1" as="geometry" />
        </mxCell>
        <mxCell id="rITT0Y_aekzjFSJYPthh-3" value="PRODUCT_CONJUNTOS (CJ+MODELCODE)" style="rounded=1;whiteSpace=wrap;html=1;arcSize=50;" parent="1" vertex="1">
          <mxGeometry x="585" y="510" width="280" height="20" as="geometry" />
        </mxCell>
        <mxCell id="rITT0Y_aekzjFSJYPthh-17" style="edgeStyle=orthogonalEdgeStyle;curved=1;rounded=0;orthogonalLoop=1;jettySize=auto;html=1;entryX=0;entryY=0.5;entryDx=0;entryDy=0;" parent="1" source="rITT0Y_aekzjFSJYPthh-4" target="co1VUZ7CqjnDsOv-ijp1-52" edge="1">
          <mxGeometry relative="1" as="geometry" />
        </mxCell>
        <mxCell id="rITT0Y_aekzjFSJYPthh-4" value="ROUTING_CONJUNTOS" style="rounded=1;whiteSpace=wrap;html=1;arcSize=50;" parent="1" vertex="1">
          <mxGeometry x="970" y="120" width="280" height="20" as="geometry" />
        </mxCell>
        <mxCell id="rITT0Y_aekzjFSJYPthh-41" style="edgeStyle=orthogonalEdgeStyle;curved=1;rounded=0;orthogonalLoop=1;jettySize=auto;html=1;entryX=0.484;entryY=1.131;entryDx=0;entryDy=0;entryPerimeter=0;" parent="1" source="rITT0Y_aekzjFSJYPthh-12" target="co1VUZ7CqjnDsOv-ijp1-50" edge="1">
          <mxGeometry relative="1" as="geometry" />
        </mxCell>
        <mxCell id="rITT0Y_aekzjFSJYPthh-53" style="edgeStyle=orthogonalEdgeStyle;curved=1;rounded=0;orthogonalLoop=1;jettySize=auto;html=1;entryX=0;entryY=0.75;entryDx=0;entryDy=0;" parent="1" source="rITT0Y_aekzjFSJYPthh-12" target="co1VUZ7CqjnDsOv-ijp1-58" edge="1">
          <mxGeometry relative="1" as="geometry">
            <Array as="points">
              <mxPoint x="1340" y="330" />
              <mxPoint x="1340" y="463" />
            </Array>
          </mxGeometry>
        </mxCell>
        <mxCell id="rITT0Y_aekzjFSJYPthh-12" value="MX" style="rounded=1;whiteSpace=wrap;html=1;arcSize=50;fillColor=#dae8fc;strokeColor=#6c8ebf;" parent="1" vertex="1">
          <mxGeometry x="1020" y="290" width="120" height="20" as="geometry" />
        </mxCell>
        <mxCell id="rITT0Y_aekzjFSJYPthh-49" style="edgeStyle=orthogonalEdgeStyle;curved=1;rounded=0;orthogonalLoop=1;jettySize=auto;html=1;entryX=0;entryY=0.5;entryDx=0;entryDy=0;exitX=1;exitY=0.5;exitDx=0;exitDy=0;" parent="1" source="rITT0Y_aekzjFSJYPthh-12" target="co1VUZ7CqjnDsOv-ijp1-56" edge="1">
          <mxGeometry relative="1" as="geometry">
            <Array as="points">
              <mxPoint x="1400" y="330" />
              <mxPoint x="1400" y="388" />
            </Array>
          </mxGeometry>
        </mxCell>
        <mxCell id="rITT0Y_aekzjFSJYPthh-51" style="edgeStyle=orthogonalEdgeStyle;curved=1;rounded=0;orthogonalLoop=1;jettySize=auto;html=1;entryX=0;entryY=0.5;entryDx=0;entryDy=0;exitX=0.5;exitY=1;exitDx=0;exitDy=0;" parent="1" source="rITT0Y_aekzjFSJYPthh-12" target="co1VUZ7CqjnDsOv-ijp1-57" edge="1">
          <mxGeometry relative="1" as="geometry" />
        </mxCell>
      </root>
    </mxGraphModel>
  </diagram>
  <diagram name="Página-3" id="jURw4gd56EIS4MFYu5wP">
    <mxGraphModel dx="1195" dy="638" grid="1" gridSize="10" guides="1" tooltips="1" connect="1" arrows="1" fold="1" page="1" pageScale="1" pageWidth="1169" pageHeight="827" math="0" shadow="0">
      <root>
        <mxCell id="ZQJokzsNegZTWrxGU5HA-0" />
        <mxCell id="ZQJokzsNegZTWrxGU5HA-1" parent="ZQJokzsNegZTWrxGU5HA-0" />
        <mxCell id="ZTFZcGOBW5I8XOaXhGLD-5" style="edgeStyle=orthogonalEdgeStyle;curved=1;rounded=0;orthogonalLoop=1;jettySize=auto;html=1;entryX=0;entryY=0.5;entryDx=0;entryDy=0;" parent="ZQJokzsNegZTWrxGU5HA-1" source="ZQJokzsNegZTWrxGU5HA-5" target="ZTFZcGOBW5I8XOaXhGLD-2" edge="1">
          <mxGeometry relative="1" as="geometry" />
        </mxCell>
        <mxCell id="ZTFZcGOBW5I8XOaXhGLD-6" style="edgeStyle=orthogonalEdgeStyle;curved=1;rounded=0;orthogonalLoop=1;jettySize=auto;html=1;entryX=0;entryY=0.5;entryDx=0;entryDy=0;" parent="ZQJokzsNegZTWrxGU5HA-1" source="ZQJokzsNegZTWrxGU5HA-5" target="ZTFZcGOBW5I8XOaXhGLD-1" edge="1">
          <mxGeometry relative="1" as="geometry" />
        </mxCell>
        <mxCell id="ZTFZcGOBW5I8XOaXhGLD-7" style="edgeStyle=orthogonalEdgeStyle;curved=1;rounded=0;orthogonalLoop=1;jettySize=auto;html=1;entryX=0;entryY=0.5;entryDx=0;entryDy=0;" parent="ZQJokzsNegZTWrxGU5HA-1" source="ZQJokzsNegZTWrxGU5HA-5" target="ZTFZcGOBW5I8XOaXhGLD-3" edge="1">
          <mxGeometry relative="1" as="geometry" />
        </mxCell>
        <mxCell id="ZQJokzsNegZTWrxGU5HA-5" value="MX" style="rounded=1;whiteSpace=wrap;html=1;arcSize=50;fillColor=#dae8fc;strokeColor=#6c8ebf;" parent="ZQJokzsNegZTWrxGU5HA-1" vertex="1">
          <mxGeometry x="50" y="396" width="120" height="20" as="geometry" />
        </mxCell>
        <mxCell id="9-D-P4HOwEEZq5D3oPDQ-4" style="edgeStyle=orthogonalEdgeStyle;curved=1;rounded=0;orthogonalLoop=1;jettySize=auto;html=1;entryX=0;entryY=0.25;entryDx=0;entryDy=0;" parent="ZQJokzsNegZTWrxGU5HA-1" source="ZQJokzsNegZTWrxGU5HA-7" target="ZQJokzsNegZTWrxGU5HA-39" edge="1">
          <mxGeometry relative="1" as="geometry" />
        </mxCell>
        <mxCell id="ZQJokzsNegZTWrxGU5HA-7" value="PRODUCT_COMPONENTES (GROUP)" style="rounded=1;whiteSpace=wrap;html=1;arcSize=50;" parent="ZQJokzsNegZTWrxGU5HA-1" vertex="1">
          <mxGeometry x="220" y="239.91000000000003" width="280" height="20" as="geometry" />
        </mxCell>
        <mxCell id="ZTFZcGOBW5I8XOaXhGLD-11" style="edgeStyle=orthogonalEdgeStyle;curved=1;rounded=0;orthogonalLoop=1;jettySize=auto;html=1;entryX=0;entryY=0.5;entryDx=0;entryDy=0;" parent="ZQJokzsNegZTWrxGU5HA-1" source="ZQJokzsNegZTWrxGU5HA-9" target="ZQJokzsNegZTWrxGU5HA-7" edge="1">
          <mxGeometry relative="1" as="geometry" />
        </mxCell>
        <mxCell id="ZQJokzsNegZTWrxGU5HA-9" value="TEVON" style="rounded=1;whiteSpace=wrap;html=1;arcSize=50;fillColor=#d5e8d4;strokeColor=#82b366;" parent="ZQJokzsNegZTWrxGU5HA-1" vertex="1">
          <mxGeometry x="50" y="239.91" width="120" height="20" as="geometry" />
        </mxCell>
        <mxCell id="ZTFZcGOBW5I8XOaXhGLD-9" style="edgeStyle=orthogonalEdgeStyle;curved=1;rounded=0;orthogonalLoop=1;jettySize=auto;html=1;entryX=0;entryY=0.5;entryDx=0;entryDy=0;" parent="ZQJokzsNegZTWrxGU5HA-1" source="ZQJokzsNegZTWrxGU5HA-13" target="ZQJokzsNegZTWrxGU5HA-15" edge="1">
          <mxGeometry relative="1" as="geometry" />
        </mxCell>
        <mxCell id="ZTFZcGOBW5I8XOaXhGLD-10" style="edgeStyle=orthogonalEdgeStyle;curved=1;rounded=0;orthogonalLoop=1;jettySize=auto;html=1;entryX=0;entryY=0.5;entryDx=0;entryDy=0;" parent="ZQJokzsNegZTWrxGU5HA-1" source="ZQJokzsNegZTWrxGU5HA-13" target="ZQJokzsNegZTWrxGU5HA-36" edge="1">
          <mxGeometry relative="1" as="geometry" />
        </mxCell>
        <mxCell id="ZQJokzsNegZTWrxGU5HA-13" value="INCA" style="rounded=1;whiteSpace=wrap;html=1;arcSize=50;fillColor=#f5f5f5;strokeColor=#666666;fontColor=#333333;" parent="ZQJokzsNegZTWrxGU5HA-1" vertex="1">
          <mxGeometry x="50" y="89.91" width="120" height="20" as="geometry" />
        </mxCell>
        <mxCell id="_wtoNr8wUi1gcrHUDW_Y-6" style="edgeStyle=orthogonalEdgeStyle;curved=1;rounded=0;orthogonalLoop=1;jettySize=auto;html=1;entryX=0;entryY=0.5;entryDx=0;entryDy=0;" edge="1" parent="ZQJokzsNegZTWrxGU5HA-1" source="ZQJokzsNegZTWrxGU5HA-15" target="_wtoNr8wUi1gcrHUDW_Y-1">
          <mxGeometry relative="1" as="geometry" />
        </mxCell>
        <mxCell id="_wtoNr8wUi1gcrHUDW_Y-8" style="edgeStyle=orthogonalEdgeStyle;curved=1;rounded=0;orthogonalLoop=1;jettySize=auto;html=1;entryX=0;entryY=0.5;entryDx=0;entryDy=0;" edge="1" parent="ZQJokzsNegZTWrxGU5HA-1" source="ZQJokzsNegZTWrxGU5HA-15" target="_wtoNr8wUi1gcrHUDW_Y-0">
          <mxGeometry relative="1" as="geometry" />
        </mxCell>
        <mxCell id="ZQJokzsNegZTWrxGU5HA-15" value="FORNECEDORES" style="rounded=1;whiteSpace=wrap;html=1;arcSize=50;" parent="ZQJokzsNegZTWrxGU5HA-1" vertex="1">
          <mxGeometry x="220" y="69.91" width="280" height="20" as="geometry" />
        </mxCell>
        <mxCell id="9-D-P4HOwEEZq5D3oPDQ-14" style="edgeStyle=orthogonalEdgeStyle;curved=1;rounded=0;orthogonalLoop=1;jettySize=auto;html=1;entryX=0;entryY=0;entryDx=0;entryDy=0;" parent="ZQJokzsNegZTWrxGU5HA-1" source="ZQJokzsNegZTWrxGU5HA-18" target="ZQJokzsNegZTWrxGU5HA-26" edge="1">
          <mxGeometry relative="1" as="geometry" />
        </mxCell>
        <mxCell id="ZQJokzsNegZTWrxGU5HA-18" value="ROUTING_COMPONENTES" style="rounded=1;whiteSpace=wrap;html=1;arcSize=50;" parent="ZQJokzsNegZTWrxGU5HA-1" vertex="1">
          <mxGeometry x="1060" y="280" width="280" height="20" as="geometry" />
        </mxCell>
        <mxCell id="9-D-P4HOwEEZq5D3oPDQ-13" style="edgeStyle=orthogonalEdgeStyle;curved=1;rounded=0;orthogonalLoop=1;jettySize=auto;html=1;entryX=0;entryY=1;entryDx=0;entryDy=0;" parent="ZQJokzsNegZTWrxGU5HA-1" source="ZQJokzsNegZTWrxGU5HA-20" target="ZQJokzsNegZTWrxGU5HA-26" edge="1">
          <mxGeometry relative="1" as="geometry" />
        </mxCell>
        <mxCell id="ZQJokzsNegZTWrxGU5HA-20" value="ROUTING_VEICULOS" style="rounded=1;whiteSpace=wrap;html=1;arcSize=50;" parent="ZQJokzsNegZTWrxGU5HA-1" vertex="1">
          <mxGeometry x="1060" y="360" width="280" height="20" as="geometry" />
        </mxCell>
        <mxCell id="9-D-P4HOwEEZq5D3oPDQ-8" style="edgeStyle=orthogonalEdgeStyle;curved=1;rounded=0;orthogonalLoop=1;jettySize=auto;html=1;entryX=0;entryY=0.5;entryDx=0;entryDy=0;" parent="ZQJokzsNegZTWrxGU5HA-1" source="ZQJokzsNegZTWrxGU5HA-22" target="ZQJokzsNegZTWrxGU5HA-44" edge="1">
          <mxGeometry relative="1" as="geometry" />
        </mxCell>
        <mxCell id="ZQJokzsNegZTWrxGU5HA-22" value="PRODUCT_PARENTIDS-CONJUNTOS" style="rounded=1;whiteSpace=wrap;html=1;arcSize=50;" parent="ZQJokzsNegZTWrxGU5HA-1" vertex="1">
          <mxGeometry x="670" y="320" width="280" height="20" as="geometry" />
        </mxCell>
        <mxCell id="ZQJokzsNegZTWrxGU5HA-26" value="ROUTING_STEPS" style="rounded=1;whiteSpace=wrap;html=1;arcSize=50;" parent="ZQJokzsNegZTWrxGU5HA-1" vertex="1">
          <mxGeometry x="1440" y="320" width="280" height="20" as="geometry" />
        </mxCell>
        <mxCell id="ZQJokzsNegZTWrxGU5HA-28" value="OPERATIONS_COMPONENTES" style="rounded=1;whiteSpace=wrap;html=1;arcSize=50;" parent="ZQJokzsNegZTWrxGU5HA-1" vertex="1">
          <mxGeometry x="1920" y="199.91" width="280" height="20" as="geometry" />
        </mxCell>
        <mxCell id="ZQJokzsNegZTWrxGU5HA-30" value="OPERATIONS_VEICULOS" style="rounded=1;whiteSpace=wrap;html=1;arcSize=50;" parent="ZQJokzsNegZTWrxGU5HA-1" vertex="1">
          <mxGeometry x="2260" y="89.91" width="280" height="20" as="geometry" />
        </mxCell>
        <mxCell id="ZQJokzsNegZTWrxGU5HA-32" value="OPERATIONS_CONJUNTOS" style="rounded=1;whiteSpace=wrap;html=1;arcSize=50;" parent="ZQJokzsNegZTWrxGU5HA-1" vertex="1">
          <mxGeometry x="2089" y="149.91" width="280" height="20" as="geometry" />
        </mxCell>
        <mxCell id="ZQJokzsNegZTWrxGU5HA-33" value="BOM_COMPONENTES" style="rounded=1;whiteSpace=wrap;html=1;arcSize=50;" parent="ZQJokzsNegZTWrxGU5HA-1" vertex="1">
          <mxGeometry x="1809" y="387.91" width="280" height="20" as="geometry" />
        </mxCell>
        <mxCell id="ZQJokzsNegZTWrxGU5HA-34" value="BOM_VEICULOS" style="rounded=1;whiteSpace=wrap;html=1;arcSize=50;" parent="ZQJokzsNegZTWrxGU5HA-1" vertex="1">
          <mxGeometry x="2129" y="523.91" width="280" height="20" as="geometry" />
        </mxCell>
        <mxCell id="ZQJokzsNegZTWrxGU5HA-35" value="BOM_CONJUNTOS" style="rounded=1;whiteSpace=wrap;html=1;arcSize=50;" parent="ZQJokzsNegZTWrxGU5HA-1" vertex="1">
          <mxGeometry x="1959" y="457.91" width="280" height="20" as="geometry" />
        </mxCell>
        <mxCell id="_wtoNr8wUi1gcrHUDW_Y-7" style="edgeStyle=orthogonalEdgeStyle;curved=1;rounded=0;orthogonalLoop=1;jettySize=auto;html=1;entryX=0;entryY=0.5;entryDx=0;entryDy=0;" edge="1" parent="ZQJokzsNegZTWrxGU5HA-1" source="ZQJokzsNegZTWrxGU5HA-36" target="_wtoNr8wUi1gcrHUDW_Y-2">
          <mxGeometry relative="1" as="geometry" />
        </mxCell>
        <mxCell id="ZQJokzsNegZTWrxGU5HA-36" value="CAPACIDADE DE FORNECEDOR&lt;br&gt;&amp;nbsp;COMPONENTES" style="rounded=1;whiteSpace=wrap;html=1;arcSize=50;" parent="ZQJokzsNegZTWrxGU5HA-1" vertex="1">
          <mxGeometry x="220" y="109.91" width="280" height="40.09" as="geometry" />
        </mxCell>
        <mxCell id="9-D-P4HOwEEZq5D3oPDQ-7" style="edgeStyle=orthogonalEdgeStyle;curved=1;rounded=0;orthogonalLoop=1;jettySize=auto;html=1;entryX=0;entryY=0.5;entryDx=0;entryDy=0;" parent="ZQJokzsNegZTWrxGU5HA-1" source="ZQJokzsNegZTWrxGU5HA-39" target="ZQJokzsNegZTWrxGU5HA-18" edge="1">
          <mxGeometry relative="1" as="geometry" />
        </mxCell>
        <mxCell id="ZQJokzsNegZTWrxGU5HA-39" value="PRODUCT_COMPONENTES (PARTNUMBER)" style="rounded=1;whiteSpace=wrap;html=1;arcSize=50;" parent="ZQJokzsNegZTWrxGU5HA-1" vertex="1">
          <mxGeometry x="670" y="280" width="280" height="20" as="geometry" />
        </mxCell>
        <mxCell id="9-D-P4HOwEEZq5D3oPDQ-9" style="edgeStyle=orthogonalEdgeStyle;curved=1;rounded=0;orthogonalLoop=1;jettySize=auto;html=1;entryX=0;entryY=0.5;entryDx=0;entryDy=0;" parent="ZQJokzsNegZTWrxGU5HA-1" source="ZQJokzsNegZTWrxGU5HA-42" target="ZQJokzsNegZTWrxGU5HA-20" edge="1">
          <mxGeometry relative="1" as="geometry" />
        </mxCell>
        <mxCell id="ZQJokzsNegZTWrxGU5HA-42" value="PRODUCT_CONJUNTOS (CJ+MODELCODE)" style="rounded=1;whiteSpace=wrap;html=1;arcSize=50;" parent="ZQJokzsNegZTWrxGU5HA-1" vertex="1">
          <mxGeometry x="670" y="359.99999999999994" width="280" height="20" as="geometry" />
        </mxCell>
        <mxCell id="9-D-P4HOwEEZq5D3oPDQ-12" style="edgeStyle=orthogonalEdgeStyle;curved=1;rounded=0;orthogonalLoop=1;jettySize=auto;html=1;entryX=0;entryY=0.5;entryDx=0;entryDy=0;" parent="ZQJokzsNegZTWrxGU5HA-1" source="ZQJokzsNegZTWrxGU5HA-44" target="ZQJokzsNegZTWrxGU5HA-26" edge="1">
          <mxGeometry relative="1" as="geometry" />
        </mxCell>
        <mxCell id="ZQJokzsNegZTWrxGU5HA-44" value="ROUTING_CONJUNTOS" style="rounded=1;whiteSpace=wrap;html=1;arcSize=50;" parent="ZQJokzsNegZTWrxGU5HA-1" vertex="1">
          <mxGeometry x="1060" y="320" width="280" height="20" as="geometry" />
        </mxCell>
        <mxCell id="ZTFZcGOBW5I8XOaXhGLD-0" value="EPL" style="rounded=1;whiteSpace=wrap;html=1;arcSize=50;fillColor=#ffe6cc;strokeColor=#d79b00;" parent="ZQJokzsNegZTWrxGU5HA-1" vertex="1">
          <mxGeometry x="50" y="560" width="120" height="20" as="geometry" />
        </mxCell>
        <mxCell id="9-D-P4HOwEEZq5D3oPDQ-3" style="edgeStyle=orthogonalEdgeStyle;curved=1;rounded=0;orthogonalLoop=1;jettySize=auto;html=1;entryX=0;entryY=0.5;entryDx=0;entryDy=0;" parent="ZQJokzsNegZTWrxGU5HA-1" source="ZTFZcGOBW5I8XOaXhGLD-1" target="ZQJokzsNegZTWrxGU5HA-22" edge="1">
          <mxGeometry relative="1" as="geometry" />
        </mxCell>
        <mxCell id="ZTFZcGOBW5I8XOaXhGLD-1" value="CONJUNTOS" style="rounded=1;whiteSpace=wrap;html=1;arcSize=50;" parent="ZQJokzsNegZTWrxGU5HA-1" vertex="1">
          <mxGeometry x="220" y="395.99999999999994" width="280" height="20" as="geometry" />
        </mxCell>
        <mxCell id="9-D-P4HOwEEZq5D3oPDQ-6" style="edgeStyle=orthogonalEdgeStyle;curved=1;rounded=0;orthogonalLoop=1;jettySize=auto;html=1;entryX=0;entryY=0.5;entryDx=0;entryDy=0;" parent="ZQJokzsNegZTWrxGU5HA-1" source="ZTFZcGOBW5I8XOaXhGLD-2" target="ZQJokzsNegZTWrxGU5HA-42" edge="1">
          <mxGeometry relative="1" as="geometry" />
        </mxCell>
        <mxCell id="ZTFZcGOBW5I8XOaXhGLD-2" value="MODELCODE" style="rounded=1;whiteSpace=wrap;html=1;arcSize=50;" parent="ZQJokzsNegZTWrxGU5HA-1" vertex="1">
          <mxGeometry x="220" y="437.90999999999997" width="280" height="20" as="geometry" />
        </mxCell>
        <mxCell id="9-D-P4HOwEEZq5D3oPDQ-5" style="edgeStyle=orthogonalEdgeStyle;curved=1;rounded=0;orthogonalLoop=1;jettySize=auto;html=1;entryX=0;entryY=0.75;entryDx=0;entryDy=0;" parent="ZQJokzsNegZTWrxGU5HA-1" source="ZTFZcGOBW5I8XOaXhGLD-3" target="ZQJokzsNegZTWrxGU5HA-39" edge="1">
          <mxGeometry relative="1" as="geometry" />
        </mxCell>
        <mxCell id="ZTFZcGOBW5I8XOaXhGLD-3" value="COMPONENTES" style="rounded=1;whiteSpace=wrap;html=1;arcSize=50;" parent="ZQJokzsNegZTWrxGU5HA-1" vertex="1">
          <mxGeometry x="220" y="349.99999999999994" width="280" height="20" as="geometry" />
        </mxCell>
        <mxCell id="_wtoNr8wUi1gcrHUDW_Y-0" value="UNITS_2" style="rounded=1;whiteSpace=wrap;html=1;arcSize=50;" vertex="1" parent="ZQJokzsNegZTWrxGU5HA-1">
          <mxGeometry x="660" y="89.91" width="280" height="20" as="geometry" />
        </mxCell>
        <mxCell id="_wtoNr8wUi1gcrHUDW_Y-1" value="UNITS_1" style="rounded=1;whiteSpace=wrap;html=1;arcSize=50;" vertex="1" parent="ZQJokzsNegZTWrxGU5HA-1">
          <mxGeometry x="660" y="49.91" width="280" height="20" as="geometry" />
        </mxCell>
        <mxCell id="_wtoNr8wUi1gcrHUDW_Y-2" value="UNITS_CAPACITIES" style="rounded=1;whiteSpace=wrap;html=1;arcSize=50;" vertex="1" parent="ZQJokzsNegZTWrxGU5HA-1">
          <mxGeometry x="660" y="129.91" width="280" height="20" as="geometry" />
        </mxCell>
        <mxCell id="_wtoNr8wUi1gcrHUDW_Y-10" value="4" style="ellipse;whiteSpace=wrap;html=1;aspect=fixed;strokeWidth=2;fontFamily=Tahoma;spacingBottom=4;spacingRight=2;strokeColor=#d3d3d3;" vertex="1" parent="ZQJokzsNegZTWrxGU5HA-1">
          <mxGeometry x="350" y="20" width="20" height="20" as="geometry" />
        </mxCell>
        <mxCell id="_wtoNr8wUi1gcrHUDW_Y-12" value="3" style="ellipse;whiteSpace=wrap;html=1;aspect=fixed;strokeWidth=2;fontFamily=Tahoma;spacingBottom=4;spacingRight=2;strokeColor=#d3d3d3;" vertex="1" parent="ZQJokzsNegZTWrxGU5HA-1">
          <mxGeometry x="100" y="20" width="20" height="20" as="geometry" />
        </mxCell>
        <mxCell id="_wtoNr8wUi1gcrHUDW_Y-13" value="5" style="ellipse;whiteSpace=wrap;html=1;aspect=fixed;strokeWidth=2;fontFamily=Tahoma;spacingBottom=4;spacingRight=2;strokeColor=#d3d3d3;" vertex="1" parent="ZQJokzsNegZTWrxGU5HA-1">
          <mxGeometry x="790" y="20" width="20" height="20" as="geometry" />
        </mxCell>
        <mxCell id="_wtoNr8wUi1gcrHUDW_Y-14" value="SMK" style="rounded=1;whiteSpace=wrap;html=1;arcSize=50;fillColor=#e1d5e7;strokeColor=#9673a6;" vertex="1" parent="ZQJokzsNegZTWrxGU5HA-1">
          <mxGeometry x="50" y="760" width="120" height="20" as="geometry" />
        </mxCell>
      </root>
    </mxGraphModel>
  </diagram>
  <diagram id="4VpNYP4VV5AJGBha418y" name="Página-4">
    <mxGraphModel dx="1434" dy="765" grid="1" gridSize="10" guides="1" tooltips="1" connect="1" arrows="1" fold="1" page="1" pageScale="1" pageWidth="1169" pageHeight="827" math="0" shadow="0">
      <root>
        <mxCell id="0" />
        <mxCell id="1" parent="0" />
        <mxCell id="duE8e3cTx9L7_LQ4rE-d-5" style="edgeStyle=orthogonalEdgeStyle;curved=1;rounded=0;orthogonalLoop=1;jettySize=auto;html=1;entryX=0.5;entryY=0;entryDx=0;entryDy=0;" parent="1" source="duE8e3cTx9L7_LQ4rE-d-1" target="duE8e3cTx9L7_LQ4rE-d-2" edge="1">
          <mxGeometry relative="1" as="geometry" />
        </mxCell>
        <mxCell id="duE8e3cTx9L7_LQ4rE-d-7" style="edgeStyle=orthogonalEdgeStyle;curved=1;rounded=0;orthogonalLoop=1;jettySize=auto;html=1;entryX=0.75;entryY=0;entryDx=0;entryDy=0;" parent="1" source="duE8e3cTx9L7_LQ4rE-d-1" target="duE8e3cTx9L7_LQ4rE-d-3" edge="1">
          <mxGeometry relative="1" as="geometry" />
        </mxCell>
        <mxCell id="duE8e3cTx9L7_LQ4rE-d-1" value="MX" style="rounded=1;whiteSpace=wrap;html=1;" parent="1" vertex="1">
          <mxGeometry x="780" y="140" width="120" height="60" as="geometry" />
        </mxCell>
        <mxCell id="duE8e3cTx9L7_LQ4rE-d-6" style="edgeStyle=orthogonalEdgeStyle;curved=1;rounded=0;orthogonalLoop=1;jettySize=auto;html=1;entryX=0.5;entryY=0;entryDx=0;entryDy=0;" parent="1" source="duE8e3cTx9L7_LQ4rE-d-2" target="duE8e3cTx9L7_LQ4rE-d-3" edge="1">
          <mxGeometry relative="1" as="geometry" />
        </mxCell>
        <mxCell id="duE8e3cTx9L7_LQ4rE-d-2" value="entidades" style="rounded=1;whiteSpace=wrap;html=1;" parent="1" vertex="1">
          <mxGeometry x="620" y="270" width="120" height="60" as="geometry" />
        </mxCell>
        <mxCell id="duE8e3cTx9L7_LQ4rE-d-3" value="quintiq" style="rounded=1;whiteSpace=wrap;html=1;" parent="1" vertex="1">
          <mxGeometry x="780" y="410" width="120" height="60" as="geometry" />
        </mxCell>
        <mxCell id="uuq8UN45dlp1L1clGLEG-8" style="edgeStyle=orthogonalEdgeStyle;curved=1;rounded=0;orthogonalLoop=1;jettySize=auto;html=1;entryX=0;entryY=0.5;entryDx=0;entryDy=0;" parent="1" source="uuq8UN45dlp1L1clGLEG-5" target="uuq8UN45dlp1L1clGLEG-6" edge="1">
          <mxGeometry relative="1" as="geometry" />
        </mxCell>
        <mxCell id="uuq8UN45dlp1L1clGLEG-5" value="veiculo (conjunto)" style="rounded=1;whiteSpace=wrap;html=1;" parent="1" vertex="1">
          <mxGeometry x="40" y="90" width="120" height="60" as="geometry" />
        </mxCell>
        <mxCell id="uuq8UN45dlp1L1clGLEG-9" style="edgeStyle=orthogonalEdgeStyle;curved=1;rounded=0;orthogonalLoop=1;jettySize=auto;html=1;" parent="1" source="uuq8UN45dlp1L1clGLEG-6" target="uuq8UN45dlp1L1clGLEG-7" edge="1">
          <mxGeometry relative="1" as="geometry" />
        </mxCell>
        <mxCell id="uuq8UN45dlp1L1clGLEG-6" value="conjuntos (PN)" style="rounded=1;whiteSpace=wrap;html=1;" parent="1" vertex="1">
          <mxGeometry x="200" y="90" width="120" height="60" as="geometry" />
        </mxCell>
        <mxCell id="uuq8UN45dlp1L1clGLEG-18" value="" style="edgeStyle=orthogonalEdgeStyle;curved=1;rounded=0;orthogonalLoop=1;jettySize=auto;html=1;" parent="1" source="uuq8UN45dlp1L1clGLEG-7" target="uuq8UN45dlp1L1clGLEG-17" edge="1">
          <mxGeometry relative="1" as="geometry" />
        </mxCell>
        <mxCell id="uuq8UN45dlp1L1clGLEG-7" value="PN" style="rounded=1;whiteSpace=wrap;html=1;" parent="1" vertex="1">
          <mxGeometry x="350" y="90" width="120" height="60" as="geometry" />
        </mxCell>
        <mxCell id="uuq8UN45dlp1L1clGLEG-16" value="conjuntos" style="rounded=1;whiteSpace=wrap;html=1;" parent="1" vertex="1">
          <mxGeometry x="420" y="280" width="120" height="60" as="geometry" />
        </mxCell>
        <mxCell id="uuq8UN45dlp1L1clGLEG-17" value="TEVON" style="rounded=1;whiteSpace=wrap;html=1;" parent="1" vertex="1">
          <mxGeometry x="500" y="90" width="120" height="60" as="geometry" />
        </mxCell>
      </root>
    </mxGraphModel>
  </diagram>
</mxfile>
